<?xml version="1.0" standalone="no"?><!DOCTYPE svg PUBLIC "-//W3C//DTD SVG 1.1//EN" "http://www.w3.org/Graphics/SVG/1.1/DTD/svg11.dtd"><svg t="1504592467965" class="icon" style="" viewBox="0 0 1024 1024" version="1.1" xmlns="http://www.w3.org/2000/svg" p-id="16907" xmlns:xlink="http://www.w3.org/1999/xlink" width="200" height="200"><defs><style type="text/css"></style></defs><path d="M512 40.421053C251.526737 40.421053 40.421053 251.580632 40.421053 512c0 260.473263 211.105684 471.578947 471.578947 471.578947 260.419368 0 471.578947-211.105684 471.578947-471.578947C983.578947 251.580632 772.419368 40.421053 512 40.421053zM512 952.158316C268.907789 952.158316 71.841684 755.092211 71.841684 512 71.841684 268.934737 268.907789 71.895579 512 71.895579c243.065263 0 440.131368 197.039158 440.131368 440.104421C952.131368 755.092211 755.065263 952.158316 512 952.158316z" p-id="16908" fill="#a5a5a5"></path><path d="M622.026105 345.492211l-242.526316 0-53.894737 80.842105 350.315789 0L622.026105 345.492211zM386.533053 364.921263l229.483789 0 22.312421 34.465684L363.789474 399.386947 386.533053 364.921263zM806.750316 399.656421c-6.736842-13.527579-11.802947-22.096842-23.04-23.498105-11.695158-1.428211-38.669474-3.287579-67.206737-4.688842-32.148211-41.930105-66.425263-79.845053-75.668211-79.845053L360.313263 291.624421c-9.216 0-43.412211 37.914947-75.506526 79.845053-28.483368 1.401263-55.403789 3.287579-67.045053 4.688842-11.264 1.374316-16.276211 9.943579-23.013053 23.498105-6.736842 13.554526-5.308632 17.461895 9.216 23.498105 14.497684 6.036211 27.594105 9.404632 27.594105 9.404632s-17.084632 32.902737-24.710737 47.023158c-4.608 8.542316-5.12 8.623158-5.200842 24.710737-0.107789 25.330526-0.269474 149.800421 0.134737 167.801263 0.350316 16.249263 4.069053 23.309474 18.863158 23.471158 18.647579 0.215579 71.518316 0 81.92 0 13.419789 0 18.405053-8.892632 18.405053-18.782316s0-35.570526 0-35.570526l356.486737 0c0 0 0 25.680842 0 35.570526s4.958316 18.782316 18.432 18.782316c10.428632 0 64.026947 0.215579 82.701474 0 14.821053-0.161684 18.081684-7.248842 18.458947-23.471158 0.404211-18.000842 0-130.533053 0-150.204632 0-26.273684 0.161684-34.304-4.634947-42.280421-8.272842-13.743158-22.474105-47.023158-22.474105-47.023158s13.123368-3.368421 27.674947-9.404632C812.085895 417.118316 813.487158 413.184 806.750316 399.656421zM781.473684 416.417684c-13.285053 5.227789-37.483789 9.916632-37.483789 9.916632s15.440842 43.196632 23.013053 55.080421c4.365474 6.898526 4.203789 13.877895 4.203789 36.648421 0 17.084632 0.377263 114.607158 0 130.182737-0.350316 14.093474-3.287579 20.210526-16.842105 20.372211-17.057684 0.161684-25.114947 0-34.627368 0-12.314947 0-16.842105-7.733895-16.842105-16.276211 0-8.569263 0-30.854737 0-30.854737L295.262316 621.487158c0 0 0 22.258526 0 30.854737 0 8.542316-4.527158 16.276211-16.788211 16.276211-9.512421 0-16.464842 0.161684-33.495579 0-13.527579-0.161684-16.896-6.251789-17.246316-20.372211-0.377263-15.575579-0.242526-123.445895-0.107789-145.408 0.053895-13.958737 0.538947-14.012632 4.742737-21.423158 6.952421-12.234105 26.570105-51.550316 26.570105-51.550316s-19.429053-6.090105-32.660211-11.290947c-13.231158-5.227789-17.273263-7.437474-11.129263-19.186526 6.144-11.749053 14.120421-9.162105 24.414316-10.347789 10.644211-1.239579 37.995789-0.053895 64-1.266526 29.291789-36.352 60.523789-69.200842 68.958316-69.200842l256.134737 0c8.434526 0 39.747368 32.875789 69.066105 69.200842 26.085053 1.212632 46.511158 2.398316 57.128421 3.637895 10.320842 1.185684 21.557895-1.509053 28.833684 7.976421C788.075789 406.716632 794.704842 411.189895 781.473684 416.417684zM375.403789 489.498947c-25.061053-3.422316-102.319158-9.754947-102.346105-8.973474-0.404211 10.347789-10.455579 47.023158 20.48 49.394526 24.225684 1.832421 112.586105 4.473263 112.586105 4.473263 0-5.146947-0.053895-22.905263 0-26.947368C406.150737 503.430737 401.111579 493.002105 375.403789 489.498947zM626.580211 494.08c-25.788632 3.530105-30.854737 13.958737-30.800842 17.946947 0.053895 4.015158 0 21.773474 0 26.920421 0 0 88.737684-2.640842 113.044211-4.473263 31.097263-2.371368 20.992-39.019789 20.587789-49.367579C729.357474 484.352 651.802947 490.657684 626.580211 494.08z" p-id="16909" fill="#a5a5a5"></path></svg>