<?xml version="1.0" standalone="no"?><!DOCTYPE svg PUBLIC "-//W3C//DTD SVG 1.1//EN" "http://www.w3.org/Graphics/SVG/1.1/DTD/svg11.dtd"><svg t="1504605113304" class="icon" style="" viewBox="0 0 1024 1024" version="1.1" xmlns="http://www.w3.org/2000/svg" p-id="38353" xmlns:xlink="http://www.w3.org/1999/xlink" width="32" height="32"><defs><style type="text/css">@font-face { font-family: uc-nexus-iconfont; src: url("chrome-extension://pogijhnlcfmcppgimcaccdkmbedjkmhi/res/font_9qmmi8b8jsxxbt9.woff") format("woff"), url("chrome-extension://pogijhnlcfmcppgimcaccdkmbedjkmhi/res/font_9qmmi8b8jsxxbt9.ttf") format("truetype"); }
</style></defs><path d="M171.6992 410.30144c21.1968 0 30.40256-9.20064 30.40256-32.39936 0.69632-32.40448 4.1984-78.30016 14.10048-108.60032 40.2944-121.99936 180.39808-219.29984 309.0944-215.00416 184.6016 0 297.8048 171.29984 297.8048 324.3008-5.00224 68.4032-18.40128 95.8976-36.80256 130.4064-63.69792 116.992-164.79744 226.29376-258.2016 318.6944-4.99712 4.89984-21.89824 11.29984-34.69824-1.39776-28.29824-26.10176-83.49696-74.7008-109.59872-102.90176-67.2-73.29792-104.704-129.69984-151.3984-224.90112-9.90208-16.19968-18.40128-26.79808-36.80256-18.29888-16.9984 6.2976-19.0976 22.59968-10.5984 42.30144 9.20064 20.39808 19.79904 40.19712 31.09888 59.89888 70.00064 119.90016 162.69824 220.6976 265.99936 313.00096 20.50048 17.59744 38.20032 17.59744 57.30304-0.70144 55.99744-52.1984 107.5968-107.19744 156.39552-165.69856 51.60448-62.69952 99.70176-129.00352 135.80288-202.30144 23.99744-49.39776 41.69728-100.096 42.39872-155.8016-1.39776-79.0016-24.80128-151.59808-70.69696-216.4992-84.10112-117.69856-232.00256-174.8992-370.60096-143.09888-166.90176 38.79936-285.7984 187.49952-285.7984 359.59808 0 22.5024 3.59936 39.40352 24.79616 39.40352z m843.20256 553.4976c-48.90112-85.2992-92.70272-162.2016-141.50144-246.79936-6.4-10.5984-24.09984-31.0016-41.00096-23.99744-16.9984 6.2976-16.9984 29.5936-9.20064 42.99776 37.49888 62.80192 128.70144 215.70048 135.10144 227.00032H61.99808c13.40416-23.296 55.20384-87.3984 68.60288-107.20256 25.4976-44.39552 38.89664-66.9952 63.69792-110.6944 13.39904-23.30112 17.69984-43.008-1.39776-52.20352-16.9984-4.1984-32.50176 3.50208-42.39872 21.1968-46.70464 81.1008-92.0064 163.60448-140.10368 244.00384-18.40128 30.30016 2.0992 60.60032 35.39968 60.60032 148.50048-1.40288 297.79968-0.70144 446.30016-0.70144h488.09984c31.104 0.1024 49.50016-28.09856 34.70336-54.20032zM509.7984 510.49984c79.90272 0 145.69984-64.90112 145.69984-145.2032 0-79.69792-65.1008-145.19808-144.9984-145.19808-80.59904 0-145.69984 64.90112-145.69984 145.2032 0 79.60064 65.1008 145.19808 144.9984 145.19808z m0.70144-248.20224c55.90016 0 101.89824 46.50496 101.89824 101.504 0.70144 55.70048-45.29664 102.1952-100.39808 102.89664-57.99936 0.70144-104.704-45.09696-104.704-102.1952-0.09728-56.40192 45.90592-102.20544 103.20384-102.20544z" fill="#d81e06" p-id="38354"></path></svg>