<?xml version="1.0" standalone="no"?><!DOCTYPE svg PUBLIC "-//W3C//DTD SVG 1.1//EN" "http://www.w3.org/Graphics/SVG/1.1/DTD/svg11.dtd"><svg t="1504605042059" class="icon" style="" viewBox="0 0 1112 1024" version="1.1" xmlns="http://www.w3.org/2000/svg" p-id="37490" xmlns:xlink="http://www.w3.org/1999/xlink" width="34.75" height="32"><defs><style type="text/css">@font-face { font-family: uc-nexus-iconfont; src: url("chrome-extension://pogijhnlcfmcppgimcaccdkmbedjkmhi/res/font_9qmmi8b8jsxxbt9.woff") format("woff"), url("chrome-extension://pogijhnlcfmcppgimcaccdkmbedjkmhi/res/font_9qmmi8b8jsxxbt9.ttf") format("truetype"); }
</style></defs><path d="M317.704943 409.889576c4.657199 12.798943 17.873895 19.765084 29.546382 15.520722 11.620391-4.24043 17.306735-18.042962 12.623979-30.890069l-20.789314-55.138371c-4.63754-12.847108-17.897486-19.810299-29.546382-15.54038-11.619408 4.215857-17.306735 18.091126-12.623979 30.885155L317.704943 409.889576z" p-id="37491" fill="#d4237a"></path><path d="M650.448965 383.463066c8.751171 10.44577 23.58383 12.453929 33.024046 4.463559 9.538511-7.894041 10.101739-22.851535 1.348602-33.297305l-25.747294-26.819689c-8.796386-10.493934-23.560239-12.502094-33.068278-4.512706-9.538511 7.943189-10.052591 22.900682-1.325012 33.340554L650.448965 383.463066z" p-id="37492" fill="#d4237a"></path><path d="M710.855927 681.880637c-10.76621-6.20534-24.956023-1.614981-31.773738 10.198068l-7.159781 10.640393c-25.811186-32.554197-69.185656-104.785021-69.209247-244.332919l0-9.289825 64.676881 0c13.652141 0 24.738792-10.057506 24.738792-22.434766 0-12.381191-11.086651-22.433783-24.738792-22.433783l-64.77321 0c-0.150391-40.942661-0.447241-82.158581-0.447241-82.158581 0-13.652141-10.018188-24.70832-22.404294-24.70832-12.380208 0-22.404294 11.05618-22.404294 24.70832 0 0 0.243771 41.093052 0.36369 82.158581L416.5569 404.227805c-13.652141 0-24.636565 10.051609-24.636565 22.433783 0 12.376276 10.984425 22.434766 24.636565 22.434766l141.264123 0c0 3.91999 0 7.66993-0.023591 11.104344-0.437411 182.382731 77.422746 276.668903 92.917911 287.92462 8.189908 5.909473 27.926486 19.441694 40.899411 5.051361 1.712292-1.814519 2.814175-3.677202 3.677202-5.540868 0.635966-0.786357 1.417409-1.325012 1.959995-2.256845l20.668411-30.890069C724.73218 702.670934 721.598547 688.057472 710.855927 681.880637z" p-id="37493" fill="#d4237a"></path><path d="M361.56892 698.59957 361.56892 490.454801c0-10.814375-6.399963-19.91056-15.156048-23.242747-4.018284-2.227356-8.675484-3.557283-13.681629-3.557283l-50.451683 0c-14.534826 0-26.23287 10.663984-26.23287 23.806959 0 13.191139 11.692146 23.831532 26.23287 23.831532l34.373631 0 0 226.633006c0 13.62855 10.028018 24.715201 22.453442 24.715201 2.134959 0 4.099869-0.394161 6.07854-1.028162 4.61395-0.664472 9.21807-2.20868 13.196054-5.540868l30.007384-21.94919c10.494917-8.747239 12.552224-23.578915 4.512706-33.073193C385.419129 692.104261 371.790579 691.395557 361.56892 698.59957z" p-id="37494" fill="#d4237a"></path><path d="M541.936611 673.521662l-41.505889 3.308597L500.430722 550.422387l15.321183-0.146459c13.653124 0 24.738792-10.051609 24.738792-22.433783s-11.084685-22.434766-24.738792-22.434766l-75.587585 0.640881c-13.62855 0-24.68473 10.047677-24.68473 22.453442s11.05618 22.409209 24.68473 22.409209l15.326098-0.097312 0 129.591636-17.262502 1.420357c-13.603976 1.203126-23.753879 12.114813-22.675587 24.472413 1.077309 12.351703 12.948351 21.473444 26.576901 20.244761l103.708695-8.335384c13.603976-1.197229 23.753879-12.158062 22.67657-24.509765C567.456845 681.342966 555.565161 672.34311 541.936611 673.521662z" p-id="37495" fill="#d4237a"></path><path d="M491.771949 102.892849c-236.706239 0-429.287038 192.580798-429.287038 429.287038 0 236.735728 192.580798 429.315543 429.287038 429.315543 236.716069 0 429.315543-192.579815 429.315543-429.315543C921.087492 295.473648 728.488017 102.892849 491.771949 102.892849zM491.771949 906.259747c-206.257513 0-374.050372-167.793842-374.050372-374.080843 0-206.232939 167.792859-374.050372 374.050372-374.050372 206.261445 0 374.078878 167.817433 374.078878 374.050372C865.850826 738.465905 698.033393 906.259747 491.771949 906.259747z" p-id="37496" fill="#d4237a"></path></svg>