<?xml version="1.0" standalone="no"?><!DOCTYPE svg PUBLIC "-//W3C//DTD SVG 1.1//EN" "http://www.w3.org/Graphics/SVG/1.1/DTD/svg11.dtd"><svg t="1504601665144" class="icon" style="" viewBox="0 0 1024 1024" version="1.1" xmlns="http://www.w3.org/2000/svg" p-id="23229" xmlns:xlink="http://www.w3.org/1999/xlink" width="32" height="32"><defs><style type="text/css">@font-face { font-family: uc-nexus-iconfont; src: url("chrome-extension://pogijhnlcfmcppgimcaccdkmbedjkmhi/res/font_9qmmi8b8jsxxbt9.woff") format("woff"), url("chrome-extension://pogijhnlcfmcppgimcaccdkmbedjkmhi/res/font_9qmmi8b8jsxxbt9.ttf") format("truetype"); }
</style></defs><path d="M663.660606 547.684848h-50.941414v-28.315151h50.941414c12.412121 0 22.49697-10.084848 22.49697-22.49697 0-12.412121-10.084848-22.49697-22.49697-22.496969h-50.941414v-15.644445l52.880808-54.432323c8.662626-8.921212 8.40404-23.143434-0.517172-31.806061-8.921212-8.662626-23.143434-8.40404-31.80606 0.517172l-42.79596 44.088889-42.79596-44.088889c-8.662626-8.921212-22.884848-9.050505-31.80606-0.517172s-9.050505 22.884848-0.517172 31.806061l52.234344 53.785858v16.29091h-50.941415c-12.412121 0-22.49697 10.084848-22.496969 22.496969 0 12.412121 10.084848 22.49697 22.496969 22.49697H567.59596v28.315151h-50.941415c-12.412121 0-22.49697 10.084848-22.496969 22.49697 0 12.412121 10.084848 22.49697 22.496969 22.49697H567.59596v40.210101c0 12.412121 10.084848 22.49697 22.496969 22.49697 12.412121 0 22.49697-10.084848 22.49697-22.49697v-40.210101h50.941414c12.412121 0 22.49697-10.084848 22.49697-22.49697 0.129293-12.412121-9.955556-22.49697-22.367677-22.49697z" fill="#ff9900" p-id="23230" class=""></path><path d="M361.632323 491.959596c-12.412121 0-22.49697-10.084848-22.496969-22.49697v-58.569697c0-12.412121 10.084848-22.49697 22.496969-22.496969 12.412121 0 22.49697 10.084848 22.49697 22.496969v58.569697c-0.129293 12.412121-10.084848 22.49697-22.49697 22.49697zM361.632323 653.963636c-12.412121 0-22.49697-10.084848-22.496969-22.496969v-58.569697c0-12.412121 10.084848-22.49697 22.496969-22.49697 12.412121 0 22.49697 10.084848 22.49697 22.49697v58.569697c-0.129293 12.412121-10.084848 22.49697-22.49697 22.496969z" fill="#ff9900" p-id="23231" class=""></path><path d="M890.181818 421.882828c9.567677-2.844444 16.161616-11.636364 16.161616-21.591919v-88.307071c0-59.345455-46.545455-107.571717-103.692929-107.571717H221.866667c-57.147475 0-103.692929 48.226263-103.69293 107.571717v88.307071c0 9.955556 6.593939 18.747475 16.161617 21.591919 17.971717 5.30101 33.228283 16.420202 44.088888 32.19394 11.248485 16.290909 17.19596 36.331313 17.19596 57.923232 0 21.591919-5.947475 41.632323-17.19596 57.923232-10.989899 15.773737-26.117172 26.892929-44.088888 32.19394-9.567677 2.844444-16.161616 11.636364-16.161617 21.591919v88.307071c0 59.345455 46.545455 107.571717 103.69293 107.571717h580.783838c57.147475 0 103.692929-48.226263 103.692929-107.571717v-88.307071c0-9.955556-6.593939-18.747475-16.161616-21.591919-17.971717-5.30101-33.228283-16.420202-44.088889-32.19394-11.248485-16.290909-17.19596-36.331313-17.195959-57.923232 0-21.591919 5.947475-41.632323 17.195959-57.923232 10.989899-15.773737 26.246465-26.892929 44.088889-32.19394z m-81.066666 173.640404c13.446465 19.523232 31.288889 34.391919 52.234343 43.830303v72.79192c0 34.521212-26.375758 62.707071-58.69899 62.70707H381.543434c1.680808-3.10303 2.585859-6.723232 2.585859-10.472727v-29.220202c0-12.412121-10.084848-22.49697-22.49697-22.49697-12.412121 0-22.49697 10.084848-22.496969 22.49697v29.220202c0 3.749495 0.905051 7.369697 2.585858 10.472727H221.866667c-32.452525 0-58.69899-28.056566-58.69899-62.70707v-72.79192c20.945455-9.438384 38.787879-24.307071 52.234343-43.830303 16.420202-23.789899 25.212121-52.622222 25.212121-83.523232 0-30.771717-8.662626-59.733333-25.212121-83.523232-13.446465-19.523232-31.288889-34.391919-52.234343-43.830303v-72.79192c0-34.521212 26.375758-62.707071 58.69899-62.70707h117.268687v58.181818c0 12.412121 10.084848 22.49697 22.496969 22.49697 12.412121 0 22.49697-10.084848 22.49697-22.49697v-58.181818h418.650505c32.452525 0 58.69899 28.056566 58.69899 62.70707v72.79192c-20.945455 9.438384-38.787879 24.307071-52.234344 43.830303-16.420202 23.789899-25.212121 52.622222-25.212121 83.523232 0 30.771717 8.662626 59.733333 25.082829 83.523232z" fill="#ff9900" p-id="23232" class=""></path></svg>