<?xml version="1.0" standalone="no"?><!DOCTYPE svg PUBLIC "-//W3C//DTD SVG 1.1//EN" "http://www.w3.org/Graphics/SVG/1.1/DTD/svg11.dtd"><svg t="1504761151697" class="icon" style="" viewBox="0 0 1024 1024" version="1.1" xmlns="http://www.w3.org/2000/svg" p-id="15945" xmlns:xlink="http://www.w3.org/1999/xlink" width="200" height="200"><defs><style type="text/css"></style></defs><path d="M512 0C229.2736 0 0 229.2736 0 512s229.2736 512 512 512 512-229.2736 512-512S794.7264 0 512 0z m0 974.7456C256.4096 974.7456 49.2544 767.5904 49.2544 512S256.4096 49.2544 512 49.2544 974.7456 256.4096 974.7456 512 767.5904 974.7456 512 974.7456z" p-id="15946" fill="#ff9900"></path><path d="M831.2832 402.5344h-63.0784c-2.9696 0-5.7344 0.9216-8.192 2.1504l-28.4672-85.7088C722.432 270.336 688.128 246.784 645.9392 246.784h-267.264c-48.4352 0-77.824 31.5392-85.6064 72.192l-28.5696 86.016c-2.56-1.536-5.5296-2.4576-8.704-2.4576h-63.1808c-9.728 0-17.6128 7.7824-17.6128 17.5104v15.2576c0 9.728 7.7824 17.5104 17.6128 17.5104l23.8592 4.096c-7.4752 14.7456-11.8784 31.6416-11.8784 51.3024l-8.8064 101.1712c0 2.9696 0.2048 5.9392 0.512 8.9088-0.4096 1.8432-0.512 3.6864-0.512 5.7344v121.6512c0 17.3056 14.0288 31.3344 31.3344 31.3344h47.8208c17.3056 0 31.4368-14.0288 31.4368-31.3344V706.56h411.5456v39.1168c0 17.3056 14.0288 31.3344 31.4368 31.3344h47.9232c17.3056 0 31.3344-14.0288 31.3344-31.3344V624.0256c0-1.9456-0.2048-3.8912-0.6144-5.7344 0.4096-2.9696 0.6144-6.0416 0.6144-8.9088l-8.9088-101.1712c0-19.6608-4.3008-36.5568-11.8784-51.3024l23.3472-3.9936c9.728 0 17.6128-7.8848 17.6128-17.5104v-15.2576c0.1024-9.728-7.7824-17.6128-17.5104-17.6128z m-517.12-18.0224l20.8896-55.6032 0.3072-1.3312c2.048-11.264 6.656-13.2096 13.5168-21.9136h327.0656c6.9632 8.9088 11.264 11.1616 13.1072 21.8112l21.1968 57.0368 7.7824 31.0272c-1.7408 22.6304-28.9792 40.5504-51.712 40.5504h-308.224c-22.6304 0-49.8688-17.92-51.712-40.5504l7.7824-31.0272z m14.6432 264.4992c-26.2144 0-47.5136-21.2992-47.5136-47.5136 0-26.2144 21.2992-47.5136 47.5136-47.5136 26.2144 0 47.5136 21.2992 47.5136 47.5136 0 26.3168-21.2992 47.5136-47.5136 47.5136z m265.216-35.0208c0 7.7824-6.3488 14.1312-14.0288 14.1312H446.6688c-7.7824 0-14.1312-6.3488-14.1312-14.1312v-39.6288c0-7.7824 6.3488-14.1312 14.1312-14.1312h133.2224c7.7824 0 14.0288 6.3488 14.0288 14.1312l0.1024 39.6288z m101.6832 35.0208c-26.2144 0-47.5136-21.2992-47.5136-47.5136 0-26.2144 21.2992-47.5136 47.5136-47.5136 26.3168 0 47.5136 21.2992 47.5136 47.5136 0 26.3168-21.1968 47.5136-47.5136 47.5136z" p-id="15947" fill="#ff9900"></path></svg>